/videos/c2bac002-eabe-675b-e7b9-524578e555c2/hls1/main/0.ts

{"Protocol":0,"Id":"c2bac002eabe675be7b9524578e555c2","Path":"/Volumes/Merged/Adult/Movies/I, Robot (2004)/I,.Robot (2004) Bluray-1080p x265 [UK\u002BEN] [DUB-UKR] 2.0.mkv","EncoderPath":null,"EncoderProtocol":null,"Type":0,"Container":"mkv,webm","Size":573066,"Name":"I,.Robot (2004) Bluray-1080p x265 [UK\u002BEN] [DUB-UKR] 2.0","IsRemote":false,"ETag":"eadc812bd5f9b2684b384c7a88359b33","RunTimeTicks":133460000,"ReadAtNativeFramerate":false,"IgnoreDts":false,"IgnoreIndex":false,"GenPtsInput":false,"SupportsTranscoding":true,"SupportsDirectStream":true,"SupportsDirectPlay":true,"IsInfiniteStream":false,"RequiresOpening":false,"OpenToken":null,"RequiresClosing":false,"LiveStreamId":null,"BufferMs":null,"RequiresLooping":false,"SupportsProbing":true,"VideoType":0,"IsoType":null,"Video3DFormat":null,"MediaStreams":[{"Codec":"h264","CodecTag":null,"Language":null,"ColorRange":null,"ColorSpace":null,"ColorTransfer":null,"ColorPrimaries":null,"DvVersionMajor":null,"DvVersionMinor":null,"DvProfile":null,"DvLevel":null,"RpuPresentFlag":null,"ElPresentFlag":null,"BlPresentFlag":null,"DvBlSignalCompatibilityId":null,"Comment":null,"TimeBase":"1/1000","CodecTimeBase":null,"Title":null,"VideoRange":"SDR","VideoRangeType":"SDR","VideoDoViTitle":null,"LocalizedUndefined":null,"LocalizedDefault":null,"LocalizedForced":null,"LocalizedExternal":null,"DisplayTitle":"360p H264 SDR","NalLengthSize":"4","IsInterlaced":false,"IsAVC":true,"ChannelLayout":null,"BitRate":343513,"BitDepth":8,"RefFrames":1,"PacketLength":null,"Channels":null,"SampleRate":null,"IsDefault":true,"IsForced":false,"Height":360,"Width":640,"AverageFrameRate":29.97003,"RealFrameRate":29.97003,"Profile":"High","Type":1,"AspectRatio":"16:9","Index":0,"Score":null,"IsExternal":false,"DeliveryMethod":null,"DeliveryUrl":null,"IsExternalUrl":null,"IsTextSubtitleStream":false,"SupportsExternalStream":false,"Path":null,"PixelFormat":"yuv420p","Level":30,"IsAnamorphic":null}],"MediaAttachments":[],"Formats":[],"Bitrate":343513,"Timestamp":null,"RequiredHttpHeaders":{},"TranscodingUrl":null,"TranscodingSubProtocol":null,"TranscodingContainer":null,"AnalyzeDurationMs":null,"DefaultAudioStreamIndex":null,"DefaultSubtitleStreamIndex":null}

/usr/lib/jellyfin-ffmpeg/ffmpeg -analyzeduration 200M -f matroska,webm -autorotate 0 -i file:"/Volumes/Merged/Adult/Movies/I, Robot (2004)/I,.Robot (2004) Bluray-1080p x265 [UK+EN] [DUB-UKR] 2.0.mkv" -map_metadata -1 -map_chapters -1 -threads 0 -map 0:0 -map -0:a -map -0:s -codec:v:0 libx264 -preset veryfast -crf 23 -maxrate 292000 -bufsize 584000 -profile:v:0 high -level 30 -x264opts:0 subme=0:me_range=4:rc_lookahead=10:me=dia:no_chroma_me:8x8dct=0:partitions=none -force_key_frames:0 "expr:gte(t,0+n_forced*3)" -sc_threshold:v:0 0 -vf "setparams=color_primaries=bt709:color_trc=bt709:colorspace=bt709,scale=trunc(min(max(iw\,ih*a)\,426)/2)*2:trunc(ow/a/2)*2,format=yuv420p"  -copyts -avoid_negative_ts disabled -max_muxing_queue_size 2048 -f hls -max_delay 5000000 -hls_time 3 -hls_segment_type mpegts -start_number 0 -hls_segment_filename "/config/data/transcodes/2743beb34b6b41f1179384258a6d9c5b%d.ts" -hls_playlist_type vod -hls_list_size 0 -y "/config/data/transcodes/2743beb34b6b41f1179384258a6d9c5b.m3u8"


ffmpeg version 5.1.3-Jellyfin Copyright (c) 2000-2022 the FFmpeg developers
  built with gcc 11 (Ubuntu 11.3.0-1ubuntu1~22.04.1)
  configuration: --prefix=/usr/lib/jellyfin-ffmpeg --target-os=linux --extra-libs=-lfftw3f --extra-version=Jellyfin --disable-doc --disable-ffplay --disable-ptx-compression --disable-static --disable-libxcb --disable-sdl2 --disable-xlib --enable-lto --enable-gpl --enable-version3 --enable-shared --enable-gmp --enable-gnutls --enable-chromaprint --enable-libdrm --enable-libass --enable-libfreetype --enable-libfribidi --enable-libfontconfig --enable-libbluray --enable-libmp3lame --enable-libopus --enable-libtheora --enable-libvorbis --enable-libopenmpt --enable-libdav1d --enable-libwebp --enable-libvpx --enable-libx264 --enable-libx265 --enable-libzvbi --enable-libzimg --enable-libfdk-aac --toolchain=hardened --enable-cross-compile --arch=arm64 --cross-prefix=/usr/bin/aarch64-linux-gnu-
  libavutil      57. 28.100 / 57. 28.100
  libavcodec     59. 37.100 / 59. 37.100
  libavformat    59. 27.100 / 59. 27.100
  libavdevice    59.  7.100 / 59.  7.100
  libavfilter     8. 44.100 /  8. 44.100
  libswscale      6.  7.100 /  6.  7.100
  libswresample   4.  7.100 /  4.  7.100
  libpostproc    56.  6.100 / 56.  6.100
Input #0, matroska,webm, from 'file:/Volumes/Merged/Adult/Movies/I, Robot (2004)/I,.Robot (2004) Bluray-1080p x265 [UK+EN] [DUB-UKR] 2.0.mkv':
  Metadata:
    COMPATIBLE_BRANDS: mp42mp41isomavc1
    MAJOR_BRAND     : mp42
    MINOR_VERSION   : 0
    ENCODER         : Lavf57.83.100
  Duration: 00:00:13.35, start: 0.000000, bitrate: 343 kb/s
  Stream #0:0: Video: h264 (High), yuv420p(progressive), 640x360, 29.97 fps, 29.97 tbr, 1k tbn (default)
    Metadata:
      HANDLER_NAME    : L-SMASH Video Handler
      ENCODER         : Lavc57.107.100 libx264
      DURATION        : 00:00:13.346000000
Stream mapping:
  Stream #0:0 -> #0:0 (h264 (native) -> h264 (libx264))
Press [q] to stop, [?] for help
[libx264 @ 0xaaaabaaf2d00] using cpu capabilities: ARMv8 NEON
[libx264 @ 0xaaaabaaf2d00] profile Main, level 3.0, 4:2:0, 8-bit
[libx264 @ 0xaaaabaaf2d00] 264 - core 163 r3060 5db6aa6 - H.264/MPEG-4 AVC codec - Copyleft 2003-2021 - http://www.videolan.org/x264.html - options: cabac=1 ref=1 deblock=1:0:0 analyse=0x1:0 me=dia subme=0 psy=1 psy_rd=1.00:0.00 mixed_ref=0 me_range=4 chroma_me=0 trellis=0 8x8dct=0 cqm=0 deadzone=21,11 fast_pskip=1 chroma_qp_offset=0 threads=3 lookahead_threads=1 sliced_threads=0 nr=0 decimate=1 interlaced=0 bluray_compat=0 constrained_intra=0 bframes=3 b_pyramid=2 b_adapt=1 b_bias=0 direct=1 weightb=1 open_gop=0 weightp=1 keyint=250 keyint_min=25 scenecut=0 intra_refresh=0 rc_lookahead=10 rc=crf mbtree=1 crf=23.0 qcomp=0.60 qpmin=0 qpmax=69 qpstep=4 vbv_maxrate=292 vbv_bufsize=584 crf_max=0.0 nal_hrd=none filler=0 ip_ratio=1.40 aq=1:1.00
Output #0, hls, to '/config/data/transcodes/2743beb34b6b41f1179384258a6d9c5b.m3u8':
  Metadata:
    encoder         : Lavf59.27.100
  Stream #0:0: Video: h264, yuv420p(tv, bt709, progressive), 426x238, q=2-31, 29.97 fps, 90k tbn (default)
    Metadata:
      encoder         : Lavc59.37.100 libx264
    Side data:
      cpb: bitrate max/min/avg: 292000/0/0 buffer size: 584000 vbv_delay: N/A
frame=    1 fps=0.0 q=0.0 size=N/A time=00:00:00.00 bitrate=N/A speed=   0x    
[hls @ 0xaaaabaae3a50] Opening '/config/data/transcodes/2743beb34b6b41f1179384258a6d9c5b0.ts' for writing
[hls @ 0xaaaabaae3a50] Opening '/config/data/transcodes/2743beb34b6b41f1179384258a6d9c5b1.ts' for writing
[hls @ 0xaaaabaae3a50] Opening '/config/data/transcodes/2743beb34b6b41f1179384258a6d9c5b2.ts' for writing
frame=  358 fps=0.0 q=29.0 size=N/A time=00:00:00.00 bitrate=N/A speed=   0x    
[hls @ 0xaaaabaae3a50] Opening '/config/data/transcodes/2743beb34b6b41f1179384258a6d9c5b3.ts' for writing
[hls @ 0xaaaabaae3a50] Opening '/config/data/transcodes/2743beb34b6b41f1179384258a6d9c5b4.ts' for writing
frame=  400 fps=0.0 q=-1.0 Lsize=N/A time=00:00:01.96 bitrate=N/A speed=3.23x    
video:489kB audio:0kB subtitle:0kB other streams:0kB global headers:0kB muxing overhead: unknown
[libx264 @ 0xaaaabaaf2d00] frame I:5     Avg QP:20.23  size: 11836
[libx264 @ 0xaaaabaaf2d00] frame P:357   Avg QP:22.58  size:  1230
[libx264 @ 0xaaaabaaf2d00] frame B:38    Avg QP:31.28  size:    41
[libx264 @ 0xaaaabaaf2d00] consecutive B-frames: 82.5% 14.5%  0.0%  3.0%
[libx264 @ 0xaaaabaaf2d00] mb I  I16..4: 15.5%  0.0% 84.5%
[libx264 @ 0xaaaabaaf2d00] mb P  I16..4:  0.4%  0.0%  0.0%  P16..4: 37.6%  0.0%  0.0%  0.0%  0.0%    skip:62.0%
[libx264 @ 0xaaaabaaf2d00] mb B  I16..4:  0.0%  0.0%  0.0%  B16..8:  0.3%  0.0%  0.0%  direct: 0.7%  skip:99.0%  L0:14.3% L1:69.0% BI:16.7%
[libx264 @ 0xaaaabaaf2d00] coded y,uvDC,uvAC intra: 82.5% 69.6% 37.2% inter: 15.4% 2.5% 0.0%
[libx264 @ 0xaaaabaaf2d00] i16 v,h,dc,p:  2% 81%  8%  8%
[libx264 @ 0xaaaabaaf2d00] i4 v,h,dc,ddl,ddr,vr,hd,vl,hu:  8% 42% 18%  3%  7%  3%  7%  2% 11%
[libx264 @ 0xaaaabaaf2d00] i8c dc,h,v,p: 25% 59%  6% 10%
[libx264 @ 0xaaaabaaf2d00] Weighted P-Frames: Y:0.0% UV:0.0%
[libx264 @ 0xaaaabaaf2d00] kb/s:299.67